<?xml version='1.0' encoding='utf-8'?>
<svg xmlns="http://www.w3.org/2000/svg" enable-background="new 0 0 2657 1656.966" version="1.1" viewBox="0 0 2657 1657"> <path d="m2606.7 471.82c0.947 9.67 1.04 10.614 1.987 20.284-28.155 15.56-28.583 17.204-31.238 46.889-1.451 16.223-14.55 29.155-30.822 29.874-22.946 1.014-27.366-8.766-31.177 0.688-5.146 12.766-44.915 18.779-60.146-23.216-13.343-36.794-52.832-42.806-100.25-74.988-28.628-19.428-60.721-13.762-91.803-25.38-3.344-1.25-6.406-1.292-9.745-0.101-93.618 33.398-85.967 62.411-126.97 110.23-4.223 4.926-27.053 51.049-29.726 91.429-1.89 28.544 8.741 65.405 5.067 102.25-3.913 39.241-14.401 91.798 0.906 89.297 12.052-1.968 24.357-2.2 36.238-5.283 23.963-6.218 47.508-14.222 72.629-15.157 20.975-0.78 41.423-6.215 62.323-7.881 60.73-4.84 83.133 34.009 118.68 106.24 44.857 91.16 106.37 127.12 82.865 170.44-11.085 20.432-23.735 35.392-30.487 65.347-8.716 38.666-28.011 71.907-50.186 103.9-1.061 1.531-2.201 2.978-2.469 4.873-2.886 20.367-10.109 39.568-15.821 59.18-9.437 32.401-12.633 40.729-14.663 36.649-15.029-30.188-83.523-67.53-60.574-114.36 5.576-11.379 8.977-23.772 17.006-34.011 4.878-6.221 10.523-11.725 15.532-17.807 18.3-22.22 2.559-29.507-16.9-66.21-69.407-130.92-111.3-179.47-240.16-127.61-71.59 28.813-144.11 55.116-216.65 81.386-10.049 3.639-12.381-0.111-19.466 3.396-100.12 49.564-204.5 100.89-553.65 31.634-53.971-10.706-108.28-18.774-163.3-21.391-5.751-0.274-8.309 3.793-37.447 23.656-15.671 10.682-26.433 15.482-45.014 50.664-41.388 78.364-31.718 59.965-157.25 75.695-3.79 0.475-7.981-0.029-11.148 3.477-46.957 52.004-71.961 35.932-135.64 48.234-45.898 8.868-77.965 34.149-140.17 36.934-44.095 1.975-47.494-1.904-52.321 4.627-71.853 97.225-0.382 172.76-126.8 161.71-58.284-5.091-68.255 11.242-98.576-0.485-13.001-5.028-13.924 11.718-34.307 44.067-42.465 67.393-90.286 48.437-133.44 69.375-4.82 2.338-10.433 2.464-15.794 0.924-4.882-1.402-2.011 1.255-49.837 11.161-2.671 0.553-21.719 3.377-33.014 4.094-7.143 0.454-3.394-11.798-0.144-17.812 5.949-11.006 9.576-23.198 12.956-35.336 8.313-29.849 38.801-49.407 69.426-44.694 19.407 2.987 39.523 16.256 50.436-3.928 7.121-13.17 10.199-25.296 18.615-29.974 19.034-10.58 75.478-81.012 107.43-150.79 61.652-134.65 63.623-139.64 86.72-146.4 49.861-14.594 81.141-2.819 91.607-11.266 42.393-34.214 35.285-43.478 21.292-35.09-16.338 9.794-33.607 13.128-34.046 12.128-0.681-1.548 0.532-0.912 9.062-10.168 30.721-33.336 36.485-64.275 27.616-67.824-2.302-0.921-1.014 0.163-10.521 10.629-0.627 0.69-1.35 1.935-2.37 1.45-1.001-0.476-0.501-1.814-0.303-2.694 3.909-17.332-10.819-68.032-16.739-100.73-0.42-2.319-0.428-5.63-4.022-5.344-3.476 0.277-4.15 4-3.908 10.207 2.061 52.825 5.235 84.85-4.662 119.02-13.113 45.273-51.654 65.046-46.092 58.02 37.614-47.518-6.667-3.487-15.848-7.753l0.029 0.027c38.321-16.602 36.866-56.794 32.979-98.07-0.215-2.278-0.316-5.028-3.282-5.585-2.6-0.489-3.525 1.705-4.496 3.473-4.916 8.949-18.636 46.107-51.603 85.038-53.025 62.618-101.51 69.329-150.93 115.75-55.206 51.853-29.272 76.726-32.087 80.528l0.018 0.016c-38.011-41.372-31.916-81.864-23.697-124.64 0.722-3.758-0.822-7.829-10.897 12.636-3.653 7.419 4.329-42.632 37.662-64.791 5.447-3.621 10.764-7.442 16.256-10.99 43.592-28.162 63.221-69.297 48.845-62.281-12.281 5.995-15.754 6.232-20.797 6.709 0.068-1.858 29.295-23.195 25.556-29.254-1.719-2.786-4.495-1.682-6.854-1.04-39.493 10.759-61.977 19.952-65.618 43.437-0.139 0.896 0.327 1.958-0.685 2.629-2.241-20.923 8.074-51.027 32.063-71.104 4.219-3.531 37.4-25.807 34.457-30.519-1.136-1.818-10.502 3.131-11.296 0.922-0.384-1.07 0.809-1.244 1.508-1.608 12.335-6.41 18.092-17.491 21.263-30.284 4.122-16.635 4.575-46.757 2.755-46.918-1.677-0.149-0.777 5.74-2.53 5.732-1.297-6e-3 -5.151-35.967-3.153-52.157 9.479-76.824 81.861-76.033 137.76-87.747 32.308-6.771-140.32-61.702-154.72 93.605-1.734 18.692-1.05 25.576-2.503 29.348-3.761-13.171-17.135-102.1 55.092-147.99 69.124-43.914 128.53-17.625 281.94-57.072 59.924-15.408 100.77-6.456 162.53 1.503 32.173 4.146 15.059-9.72 118.15-27.991 322.12-57.092 312.13 64.561 645.13-156.66 24.851-16.509 48.891-34.349 77.95-43.314 6.192-1.91 8.048-1.487 13.266-18.446 4.167-13.544-24.183 0.35-40.841 25.311-0.434 0.65-1.089 1.711-1.557 1.668-1.383-0.128-3.519-31.182 19.384-53.347 13.041-12.62 15.524-15.136 13.086-19.163-1.694-2.798-3.92-0.556-5.755 0.028-6.443 2.049-12.895 3.736-19.702 2.18-5.438-1.243-1.635-2.621-0.635-3.172 63.747-35.112 84.24-90.907 94.268-111.96 5.958-12.508-10.155-10.031-19.105 10.921l0.048-0.062c-2.247-4.094 5.758-26.737 21.557-44.013 49.652-54.293 78.274-51.225 98.958-65.85 3.715-2.627 4.434-7.979-2.095-9.146-11.485-2.051-22.899-6.863-22.225-11.785 0.332-2.424 3.825-1.962 5.946-2.455 91.768-21.323 61.478-43.374 224-106.8 3.266-1.275 4.486-3.917 4.285-7.221-0.346-5.713-12.134-6.17-17.313-2.336l0.045-0.104c-1.737-5.049 58.603-47.21 148.77-40.893 16.906 1.184 20.254 3.695 22.916-0.68 1.737-2.855-1.189-3.927-2.664-5.365-2.044-1.993-4.436-3.556-7.053-4.744-0.737-0.335-1.561-0.572-1.786-1.513 30.415-4.734 63.167 34.996 81.569 42.978 10.248 4.445 6.977-6.54 13.545-38.507 1.207-5.871 4.264-5.253 4.414-3.361 1.697 21.41 16.541 22.031 30.692 43.494 7.274 11.033 17.566 4.421 41.164 15.957 2.089 1.021 4.337 2.295 6.486 0.137 2-2.008 0.728-4.232-0.161-6.073-4.369-9.054-2.554-17.668 1.737-26.035 12.577-24.528 11.168-20.024 12.631-17.629 18.026 29.515 32.782 53.021 31.831 80.618-0.365 10.561 8.718 13.096 23.924 28.284 18.198 18.176 30.363 41.289 48.401 59.633 0.985 1.002 27.131 40.509 36.209 60.829 4.816 10.778 74.266 100.54 81.144 108.03 21.061 22.927 32.63 50.821 46.103 64.515 7.776 7.904 14.916 16.345 21.66 25.134 0.955 1.242 1.835 2.667 3.288 3.234zm-2015.8 538.01c-2.173-0.307-12.5-8.683-18.605-29.393-0.583-1.978-0.373-5.238-3.955-4.742-6.994 0.968-5.191 28.432-3.79 37.865 7.335 49.384 41.823 113.84-9.266 152.51l0.101-0.131c-0.826-0.886-0.531-1.862-0.181-2.809 2.516-6.817 3.514-13.907 4.145-21.111 0.277-3.158 0.148-5.861-3.167-7.022-3.515-1.231-4.754 1.637-5.932 4.017-19.303 39.024-41.736 40.48-30.382 45.116 1.791 0.731 3.665 0.367 5.47 0.102 19.73-2.897 34.957-12.992 59.494-30.241 35.238-24.771 5.001-125.99 19.534-206.3 0.343-1.896 1.376-4.447-1.148-5.296-2.486-0.836-4.512 3.324-5.48 5.628-8.331 19.83-13.529 39.992-6.461 61.442-0.125 0.123-0.251 0.247-0.377 0.37zm1710.2-91.689c-18.004-16.116-40.302-14.288-33.024-4.455 6.458 8.725 10.644 18.569 15.059 28.338 17.555 38.841 44.07 71.949 68.52 106.34 8.923 12.55 20.441 23.079 30.828 34.482 1.81 1.988 3.607 4.353 6.779 2.917 14.722-6.663-33.21-118.42-88.162-167.62zm-1875.3 484.49c22.964-43.218 28.56-44.071 35.502-58.938 7.172-15.357-34.409-2.603-51.212 9.78-30.378 22.386-53.17 52.119-60.737 67.555-1.671 3.408-0.857 6.132 3.156 6.684 26.361 3.621 42.842 32.224 73.291-25.081zm1996.7-1173.6c-6.812-0.839-4.203 4.133 0.187 9.443 33.293 40.267 53.268 122.09 103.26 152.8 13.271 8.152 24.842 18.291 30.495 33.598 1.339 3.627 5.117 4.35 10.869 13.728 4.196 6.842 15.913 11.196 11.646 5.805-16.171-20.428-28.196-43.695-46.94-62.553-45.219-45.495-67.561-95.303-104.28-148.76-1.475-2.147-2.93-4.135-5.236-4.064zm-1795.6 650.14c2.935 1.211 4.524-2.361 6.415-5.851 8.877-16.389 25.919-48.017 50.884-80.671 3.952-5.169 2.221-10.186-8.264-10.244-28.842-0.16-36.103 33.819-42.867 59.982-8.71 33.687-8.543 35.805-6.168 36.784zm-346.52 617.39c18.15-4.75 25.559-39.633 50.699-75.2 2.978-4.213 5.256-8.962 7.528-13.624 2.781-5.706 1.901-8.323-3.046-10.733-12.154-5.922-14.51 25.655-45.164 64.324-13.047 16.457-23.051 38.644-10.017 35.233zm2104.6-243.91c9.241-2.914 11.454-8.823 7.427-44.573-1.017-9.031-15.261-12.672-14.943-4.469 0.451 11.611-5.489 22.645-2.758 34.375 1.373 5.9-3.685 0.848-15.86-5.596-7.085-3.749-11.926 4.228-7.24 9.268 8.481 9.127 21.122 14.858 33.374 10.995zm-2.423-130.08c2.56-7.387-0.654-14.06-9.596-19.926-12.399-8.133-9.355 19.362-17.499 17.136-3.949-1.079-5.276 0.628-4.095 4.653 3.377 11.514 25.448 14.708 31.19-1.863z"/> <path d="m1961.8 83.891c-0.236-0.066-0.472-0.132-0.708-0.198 0.029 0.136 0.058 0.271 0.088 0.407 0.221-0.107 0.442-0.213 0.664-0.316 1e-3 3e-3 -0.044 0.107-0.044 0.107z"/> <path d="m409.42 1168.2 0.144 1.197c-0.145 3e-3 -0.291 6e-3 -0.436 9e-3 0.113-0.387 0.225-0.775 0.329-1.17-7e-3 -9e-3 -0.037-0.036-0.037-0.036z"/> <path d="m1648.6 333.56-0.281-0.053c0.146-4e-3 0.355-0.042 0.281 0.053z"/> <path d="m200.04 1349.4c0.187-0.038 0.374-0.077 0.562-0.115-0.035 8e-3 -0.535 0.139-0.562 0.115z"/> <path d="m591.26 1009.5c0.213 0.212 0.635 0.578 0.608 0.615-0.488 0.667-0.759 0.273-0.984-0.246 0.125-0.122 0.251-0.246 0.376-0.369z"/> <path d="m555.27 1166.1-0.246-0.194c0.413 0.052 0.359 0.048 0.246 0.194z"/> </svg>